#!OML:ASF E:\motion texture\Top Level 1\Subject 1\Session 1\male.ASF
:FULLY-SPECIFIED
:DEGREES
413
root -27.5467 18.1459 5.04908 115.638 -86.2164 -111.513
lowerback 1.84195 0.162038 1.32402
upperback -3.65742 0.310525 2.40358
thorax -4.81611 0.126955 1.7275
lowerneck -16.7923 -6.00778 -5.96149
upperneck 19.6735 -7.73084 3.62441
head 9.34724 -3.71998 1.19985
rclavicle -2.21148e-015 -9.14409e-015
rhumerus -14.934 -77.7767 1.21353
rradius 21.621
rwrist 4.74329
rhand -5.55484 -24.4844
rfingers 7.12502
rthumb 20.2602 -53.4478
lclavicle -2.21148e-015 -9.14409e-015
lhumerus -32.8256 53.601 -3.6573
lradius 26.1961
lwrist 20.2568
lhand -12.7622 19.3701
lfingers 7.12502
lthumb 13.3224 48.9242
rfemur -21.365 -8.46415 21.0243
rtibia 64.8078
rfoot 5.52569 -20.6492
rtoes 13.5381
lfemur -10.7666 -0.94917 -17.2029
ltibia 17.3423
lfoot -7.8173 3.90631
ltoes -0.623298
414
root -27.6821 18.1585 5.064 115.554 -86.3669 -111.407
lowerback 1.89066 0.126842 1.18613
upperback -3.66433 0.260113 2.41618
thorax -4.85073 0.107511 1.82112
lowerneck -16.8104 -5.97509 -5.90281
upperneck 19.7722 -7.71073 3.63737
head 9.38182 -3.70531 1.19622
rclavicle -4.5969e-016 2.06736e-014
rhumerus -14.529 -77.5865 0.948716
rradius 21.6184
rwrist 4.63915
rhand -5.63326 -24.5026
rfingers 7.12502
rthumb 20.1849 -53.4739
lclavicle -4.5969e-016 2.06736e-014
lhumerus -32.7194 53.7417 -3.53255
lradius 26.1029
lwrist 20.0664
lhand -12.5951 19.377
lfingers 7.12502
lthumb 13.4835 48.9205
rfemur -22.443 -8.75277 20.8935
rtibia 64.6889
rfoot 4.75773 -20.4165
rtoes 13.5005
lfemur -10.0161 -1.05455 -17.4748
ltibia 16.8418
lfoot -8.01524 3.98781
ltoes -0.660676
415
root -27.8161 18.1691 5.07819 115.588 -86.5266 -111.404
lowerback 1.93751 0.0925088 1.03605
upperback -3.67537 0.210035 2.42371
thorax -4.8884 0.0886751 1.91644
lowerneck -16.8086 -5.93841 -5.85375
upperneck 19.8427 -7.68914 3.68011
head 9.40464 -3.68769 1.20534
rclavicle -9.31803e-016 1.90833e-014
rhumerus -14.1691 -77.5744 0.74269
rradius 21.5857
rwrist 4.67911
rhand -5.69037 -24.5135
rfingers 7.12502
rthumb 20.13 -53.4906
lclavicle -9.31803e-016 1.90833e-014
lhumerus -32.6041 53.9147 -3.42451
lradius 26.0031
lwrist 19.858
lhand -12.4479 19.3854
lfingers 7.12502
lthumb 13.6253 48.9195
rfemur -23.5118 -8.99635 20.761
rtibia 64.4185
rfoot 3.93482 -20.0578
rtoes 13.257
lfemur -9.3056 -1.13191 -17.7525
ltibia 16.3697
lfoot -8.21831 4.04938
ltoes -0.709675
416
root -27.9488 18.1772 5.09155 115.608 -86.6923 -111.366
lowerback 1.98233 0.058298 0.8788
upperback -3.69388 0.159528 2.42822
thorax -4.93251 0.0698991 2.01288
lowerneck -16.7969 -5.89778 -5.78752
upperneck 19.8937 -7.66414 3.71499
head 9.41759 -3.66816 1.20996
rclavicle 1.98785e-015 -2.22639e-014
rhumerus -13.837 -77.6896 0.578091
rradius 21.527
rwrist 4.81455
rhand -5.74016 -24.5235
rfingers 7.12502
rthumb 20.0821 -53.5056
lclavicle 1.98785e-015 -2.22639e-014
lhumerus -32.4542 54.0548 -3.29033
lradius 25.9142
lwrist 19.7052
lhand -12.2984 19.3962
lfingers 7.12502
lthumb 13.7695 48.9205
rfemur -24.5752 -9.20212 20.6332
rtibia 64.0007
rfoot 3.07114 -19.6355
rtoes 12.8229
lfemur -8.63762 -1.18519 -18.0285
ltibia 15.9232
lfoot -8.42945 4.08805
ltoes -0.790967
417
root -28.0806 18.1831 5.10389 115.359 -86.8588 -111.048
lowerback 2.0189 0.0185156 0.724731
upperback -3.70712 0.101303 2.43447
thorax -4.96591 0.0472686 2.10985
lowerneck -16.7708 -5.85338 -5.72794
upperneck 19.9066 -7.63497 3.76959
head 9.41552 -3.64512 1.22373
rclavicle 2.06239e-015 -1.27222e-014
rhumerus -13.4641 -77.8746 0.378397
rradius 21.4534
rwrist 4.986
rhand -5.78177 -24.5313
rfingers 7.12502
rthumb 20.0421 -53.5177
lclavicle 2.06239e-015 -1.27222e-014
lhumerus -32.2812 54.1431 -3.12978
lradius 25.8525
lwrist 19.6519
lhand -12.2559 19.4033
lfingers 7.12502
lthumb 13.8103 48.9248
rfemur -25.6099 -9.37805 20.5173
rtibia 63.4203
rfoot 2.1672 -19.2093
rtoes 12.213
lfemur -8.00035 -1.22085 -18.2912
ltibia 15.5
lfoot -8.64847 4.09998
ltoes -0.888197
418
root -28.2116 18.187 5.11508 114.674 -87.0271 -110.29
lowerback 2.06186 -0.0307622 0.578488
upperback -3.71829 0.0306847 2.44002
thorax -5.00007 0.0182602 2.2026
lowerneck -16.7423 -5.80243 -5.661
upperneck 19.8933 -7.59803 3.82967
head 9.40337 -3.61725 1.23958
rclavicle 5.09386e-016 6.75868e-015
rhumerus -13.0565 -78.2303 0.143568
rradius 21.3654
rwrist 5.3145
rhand -5.76529 -24.5207
rfingers 7.12502
rthumb 20.058 -53.5053
lclavicle 5.09386e-016 6.75868e-015
lhumerus -32.0886 54.1775 -2.95598
lradius 25.8179
lwrist 19.6879
lhand -12.2532 19.4096
lfingers 7.12502
lthumb 13.813 48.931
rfemur -26.5992 -9.53605 20.4106
rtibia 62.6759
rfoot 1.26083 -18.8332
rtoes 11.5759
lfemur -7.37504 -1.25752 -18.5428
ltibia 15.0862
lfoot -8.86902 4.09581
ltoes -0.995759
419
root -28.3423 18.1889 5.12528 113.439 -87.1931 -108.979
lowerback 2.10909 -0.0879468 0.440886
upperback -3.73187 -0.0501744 2.4471
thorax -5.0385 -0.0160787 2.29295
lowerneck -16.7029 -5.75023 -5.5929
upperneck 19.8678 -7.55997 3.89187
head 9.38503 -3.58875 1.25645
rclavicle -2.03754e-015 6.36111e-015
rhumerus -12.5903 -78.5342 -0.15587
rradius 21.2845
rwrist 5.59143
rhand -5.72351 -24.5081
rfingers 7.12502
rthumb 20.0981 -53.4885
lclavicle -2.03754e-015 6.36111e-015
lhumerus -31.88 54.154 -2.76811
lradius 25.8142
lwrist 19.8127
lhand -12.3157 19.4279
lfingers 7.12502
lthumb 13.7528 48.9534
rfemur -27.5391 -9.67681 20.3119
rtibia 61.7618
rfoot 0.370068 -18.5488
rtoes 10.9549
lfemur -6.77436 -1.29748 -18.7779
ltibia 14.7062
lfoot -9.10392 4.07513
ltoes -1.17492
420
root -28.4726 18.1888 5.13417 111.752 -87.3478 -107.217
lowerback 2.15963 -0.152649 0.312865
upperback -3.74027 -0.140683 2.45803
thorax -5.07267 -0.0554602 2.38265
lowerneck -16.6673 -5.69568 -5.52829
upperneck 19.8368 -7.51742 3.95648
head 9.36546 -3.55806 1.27525
rclavicle -2.65874e-015 -1.98785e-015
rhumerus -12.0141 -78.6276 -0.587246
rradius 21.2339
rwrist 5.66705
rhand -5.68431 -24.4989
rfingers 7.12502
rthumb 20.1358 -53.4754
lclavicle -2.65874e-015 -1.98785e-015
lhumerus -31.6697 54.0858 -2.58427
lradius 25.8394
lwrist 20.0164
lhand -12.4629 19.4624
lfingers 7.12502
lthumb 13.6109 48.9975
rfemur -28.4196 -9.79762 20.2269
rtibia 60.6876
rfoot -0.500151 -18.3785
rtoes 10.3681
lfemur -6.18827 -1.3479 -18.9918
ltibia 14.3534
lfoot -9.34442 4.06081
ltoes -1.35216
421
root -28.6024 18.1868 5.1418 109.649 -87.5019 -105.045
lowerback 2.22782 -0.224038 0.181855
upperback -3.74971 -0.240103 2.4678
thorax -5.11723 -0.099004 2.47379
lowerneck -16.6295 -5.64233 -5.4612
upperneck 19.8028 -7.4768 4.01995
head 9.34442 -3.52829 1.29301
rclavicle -2.98177e-016 4.37326e-015
rhumerus -11.3933 -78.5824 -1.08275
rradius 21.2091
rwrist 5.63383
rhand -5.60474 -24.4835
rfingers 7.12502
rthumb 20.2123 -53.452
lclavicle -2.98177e-016 4.37326e-015
lhumerus -31.4678 53.9932 -2.42466
lradius 25.8834
lwrist 20.234
lhand -12.5821 19.5072
lfingers 7.12502
lthumb 13.496 49.0499
rfemur -29.2289 -9.90722 20.1375
rtibia 59.4547
rfoot -1.32936 -18.3227
rtoes 9.81538
lfemur -5.61044 -1.4151 -19.2031
ltibia 14.0282
lfoot -9.58896 4.05674
ltoes -1.53391
422
root -28.7321 18.1828 5.14838 107.141 -87.6586 -102.472
lowerback 2.29693 -0.297445 0.0420935
upperback -3.74759 -0.342827 2.47658
thorax -5.14957 -0.143798 2.56911
lowerneck -16.6232 -5.59618 -5.40724
upperneck 19.7828 -7.44263 4.08859
head 9.33513 -3.50123 1.31283
rclavicle -2.18663e-015 -2.78299e-015
rhumerus -10.7885 -78.3475 -1.57517
rradius 21.216
rwrist 5.41847
rhand -5.59052 -24.4743
rfingers 7.12502
rthumb 20.2259 -53.4413
lclavicle -2.18663e-015 -2.78299e-015
lhumerus -31.238 53.8319 -2.22734
lradius 25.9562
lwrist 20.5295
lhand -12.7941 19.5602
lfingers 7.12502
lthumb 13.2917 49.1164
rfemur -29.9674 -10.009 20.0356
rtibia 58.065
rfoot -2.08614 -18.382
rtoes 9.30223
lfemur -5.04983 -1.49756 -19.4197
ltibia 13.74
lfoot -9.84115 4.06311
ltoes -1.71431
423
root -28.8613 18.1769 5.15394 104.122 -87.8126 -99.3862
lowerback 2.36337 -0.373743 -0.102735
upperback -3.73454 -0.449879 2.48605
thorax -5.16818 -0.190549 2.66828
lowerneck -16.6311 -5.55659 -5.37497
upperneck 19.7613 -7.41522 4.17642
head 9.33 -3.47648 1.34144
rclavicle 3.29237e-015 -8.74653e-015
rhumerus -10.2185 -77.9842 -2.04463
rradius 21.253
rwrist 5.08574
rhand -5.59151 -24.4597
rfingers 7.12502
rthumb 20.225 -53.4268
lclavicle 3.29237e-015 -8.74653e-015
lhumerus -30.9993 53.6337 -2.0159
lradius 26.0517
lwrist 20.86
lhand -13.0671 19.6146
lfingers 7.12502
lthumb 13.0286 49.1877
rfemur -30.6363 -10.1023 19.9269
rtibia 56.5243
rfoot -2.77743 -18.5429
rtoes 8.73826
lfemur -4.51805 -1.59343 -19.636
ltibia 13.4992
lfoot -10.1139 4.07804
ltoes -1.86024
424
root -28.9897 18.1692 5.1584 100.577 -87.9681 -95.7702
lowerback 2.43236 -0.449851 -0.25873
upperback -3.71536 -0.557438 2.49239
thorax -5.18121 -0.237151 2.77066
lowerneck -16.6685 -5.52494 -5.33118
upperneck 19.7511 -7.39556 4.24278
head 9.33322 -3.4561 1.35898
rclavicle 6.31141e-015 -1.23246e-014
rhumerus -9.71167 -77.7522 -2.44881
rradius 21.2891
rwrist 4.88847
rhand -5.63784 -24.4299
rfingers 7.12502
rthumb 20.1805 -53.4017
lclavicle 6.31141e-015 -1.23246e-014
lhumerus -30.7512 53.4308 -1.79651
lradius 26.1576
lwrist 21.1646
lhand -13.2975 19.6688
lfingers 7.12502
lthumb 12.8064 49.256
rfemur -31.2391 -10.1857 19.8031
rtibia 54.8365
rfoot -3.40685 -18.7878
rtoes 8.19028
lfemur -4.02038 -1.69928 -19.8592
ltibia 13.3047
lfoot -10.4085 4.0963
ltoes -1.98975
425
root -29.1191 18.1617 5.16318 96.1875 -88.1443 -91.3221
lowerback 2.48268 -0.515072 -0.444242
upperback -3.63904 -0.652106 2.49594
thorax -5.12349 -0.276819 2.88467
lowerneck -16.7696 -5.50348 -5.40267
upperneck 19.6728 -7.38579 4.46346
head 9.33609 -3.43026 1.44568
rclavicle -5.35476e-015 7.95139e-016
rhumerus -9.21646 -78.3688 -2.77799
rradius 21.2527
rwrist 5.44918
rhand -5.83301 -24.3186
rfingers 7.12502
rthumb 19.9929 -53.31
lclavicle -5.35476e-015 7.95139e-016
lhumerus -30.4153 53.2086 -1.44089
lradius 26.2771
lwrist 21.5602
lhand -13.5838 19.6739
lfingers 7.12502
lthumb 12.5304 49.2782
rfemur -31.8523 -10.2944 19.6374
rtibia 53.1915
rfoot -4.03022 -18.9614
rtoes 7.77499
lfemur -3.48 -1.80579 -20.1243
ltibia 13.0621
lfoot -10.6544 4.10977
ltoes -2.20211
426
root -29.2437 18.1506 5.16565 90.5628 -88.264 -85.5943
lowerback 2.56346 -0.616174 -0.596662
upperback -3.68386 -0.793415 2.50817
thorax -5.20731 -0.339653 2.99525
lowerneck -16.7223 -5.47401 -5.21401
upperneck 19.7394 -7.36532 4.29847
head 9.33491 -3.42619 1.36212
rclavicle -6.21202e-015 -7.15625e-015
rhumerus -8.83043 -76.8731 -3.14689
rradius 21.445
rwrist 4.1333
rhand -5.62391 -24.4141
rfingers 7.12502
rthumb 20.1939 -53.3845
lclavicle -6.21202e-015 -7.15625e-015
lhumerus -30.3085 53.115 -1.42591
lradius 26.3688
lwrist 21.622
lhand -13.7038 19.7677
lfingers 7.12502
lthumb 12.4147 49.379
rfemur -32.3461 -10.3513 19.5178
rtibia 51.2218
rfoot -4.42991 -19.4049
rtoes 7.52172
lfemur -3.11868 -1.92363 -20.3211
ltibia 13.0279
lfoot -11.0915 4.10625
ltoes -2.10833
427
root -29.3716 18.1388 5.16735 85.4954 -88.3964 -80.4453
lowerback 2.62411 -0.681217 -0.75984
upperback -3.64379 -0.887771 2.49511
thorax -5.19273 -0.380039 3.08045
lowerneck -16.8083 -5.46518 -5.11892
upperneck 19.7398 -7.37437 4.30403
head 9.3476 -3.42072 1.34539
rclavicle 2.48481e-017 5.56597e-015
rhumerus -8.25701 -77.9022 -3.58544
rradius 21.3392
rwrist 5.16514
rhand -6.16724 -24.2515
rfingers 7.12502
rthumb 19.6716 -53.2762
lclavicle 2.48481e-017 5.56597e-015
lhumerus -30.0419 52.8559 -1.20016
lradius 26.5043
lwrist 21.8334
lhand -13.9151 19.8356
lfingers 7.12502
lthumb 12.211 49.4591
rfemur -32.7207 -10.364 19.3471
rtibia 49.0793
rfoot -5.0163 -19.7644
rtoes 6.71049
lfemur -2.7048 -2.03369 -20.5437
ltibia 12.9567
lfoot -11.4204 4.12984
ltoes -2.31014
